<mxfile host="app.diagrams.net" agent="Mozilla/5.0 (Windows NT 10.0; Win64; x64) AppleWebKit/537.36 (KHTML, like Gecko) Chrome/134.0.0.0 Safari/537.36" version="26.0.6">
  <diagram id="prtHgNgQTEPvFCAcTncT" name="Page-1">
    <mxGraphModel dx="875" dy="435" grid="1" gridSize="10" guides="1" tooltips="1" connect="1" arrows="1" fold="1" page="1" pageScale="1" pageWidth="827" pageHeight="1169" math="0" shadow="0">
      <root>
        <mxCell id="0" />
        <mxCell id="1" parent="0" />
        <mxCell id="PhMuikcm6n4okIbUqbu8-10" value="Pool" style="swimlane;childLayout=stackLayout;resizeParent=1;resizeParentMax=0;horizontal=1;startSize=20;horizontalStack=0;html=1;" vertex="1" parent="1">
          <mxGeometry x="174" y="80" width="480" height="480" as="geometry" />
        </mxCell>
        <mxCell id="PhMuikcm6n4okIbUqbu8-11" value="Job Seeker" style="swimlane;startSize=20;horizontal=0;html=1;direction=east;" vertex="1" parent="PhMuikcm6n4okIbUqbu8-10">
          <mxGeometry y="20" width="480" height="220" as="geometry">
            <mxRectangle y="20" width="480" height="30" as="alternateBounds" />
          </mxGeometry>
        </mxCell>
        <mxCell id="PhMuikcm6n4okIbUqbu8-16" style="edgeStyle=orthogonalEdgeStyle;rounded=0;orthogonalLoop=1;jettySize=auto;html=1;exitX=1;exitY=0.5;exitDx=0;exitDy=0;entryX=0;entryY=0.5;entryDx=0;entryDy=0;" edge="1" parent="PhMuikcm6n4okIbUqbu8-11" source="PhMuikcm6n4okIbUqbu8-14" target="PhMuikcm6n4okIbUqbu8-15">
          <mxGeometry relative="1" as="geometry" />
        </mxCell>
        <mxCell id="PhMuikcm6n4okIbUqbu8-14" value="Register Account" style="ellipse;whiteSpace=wrap;html=1;" vertex="1" parent="PhMuikcm6n4okIbUqbu8-11">
          <mxGeometry x="40" y="20" width="90" height="50" as="geometry" />
        </mxCell>
        <mxCell id="PhMuikcm6n4okIbUqbu8-20" style="edgeStyle=orthogonalEdgeStyle;rounded=0;orthogonalLoop=1;jettySize=auto;html=1;entryX=0.5;entryY=0;entryDx=0;entryDy=0;" edge="1" parent="PhMuikcm6n4okIbUqbu8-11" source="PhMuikcm6n4okIbUqbu8-15" target="PhMuikcm6n4okIbUqbu8-19">
          <mxGeometry relative="1" as="geometry" />
        </mxCell>
        <mxCell id="PhMuikcm6n4okIbUqbu8-15" value="Update Profile" style="rounded=1;whiteSpace=wrap;html=1;" vertex="1" parent="PhMuikcm6n4okIbUqbu8-11">
          <mxGeometry x="196" y="20" width="96" height="40" as="geometry" />
        </mxCell>
        <mxCell id="PhMuikcm6n4okIbUqbu8-19" value="Update Resume&lt;div&gt;&lt;br&gt;&lt;/div&gt;" style="rounded=1;whiteSpace=wrap;html=1;" vertex="1" parent="PhMuikcm6n4okIbUqbu8-11">
          <mxGeometry x="356" y="50" width="104" height="50" as="geometry" />
        </mxCell>
        <mxCell id="PhMuikcm6n4okIbUqbu8-24" style="edgeStyle=orthogonalEdgeStyle;rounded=0;orthogonalLoop=1;jettySize=auto;html=1;exitX=1;exitY=0.5;exitDx=0;exitDy=0;entryX=0;entryY=0.5;entryDx=0;entryDy=0;" edge="1" parent="PhMuikcm6n4okIbUqbu8-11" source="PhMuikcm6n4okIbUqbu8-21" target="PhMuikcm6n4okIbUqbu8-23">
          <mxGeometry relative="1" as="geometry" />
        </mxCell>
        <mxCell id="PhMuikcm6n4okIbUqbu8-21" value="Search for Job" style="rounded=1;whiteSpace=wrap;html=1;" vertex="1" parent="PhMuikcm6n4okIbUqbu8-11">
          <mxGeometry x="66" y="110" width="120" height="60" as="geometry" />
        </mxCell>
        <mxCell id="PhMuikcm6n4okIbUqbu8-22" style="edgeStyle=orthogonalEdgeStyle;rounded=0;orthogonalLoop=1;jettySize=auto;html=1;exitX=0;exitY=0.5;exitDx=0;exitDy=0;entryX=0.575;entryY=-0.006;entryDx=0;entryDy=0;entryPerimeter=0;" edge="1" parent="PhMuikcm6n4okIbUqbu8-11" source="PhMuikcm6n4okIbUqbu8-19" target="PhMuikcm6n4okIbUqbu8-21">
          <mxGeometry relative="1" as="geometry" />
        </mxCell>
        <mxCell id="PhMuikcm6n4okIbUqbu8-23" value="Apply for Job&amp;nbsp; &amp;nbsp; &amp;nbsp; &amp;nbsp;" style="rounded=1;whiteSpace=wrap;html=1;" vertex="1" parent="PhMuikcm6n4okIbUqbu8-11">
          <mxGeometry x="306" y="110" width="120" height="60" as="geometry" />
        </mxCell>
        <mxCell id="PhMuikcm6n4okIbUqbu8-12" value="Employee" style="swimlane;startSize=20;horizontal=0;html=1;" vertex="1" parent="PhMuikcm6n4okIbUqbu8-10">
          <mxGeometry y="240" width="480" height="120" as="geometry" />
        </mxCell>
        <mxCell id="PhMuikcm6n4okIbUqbu8-25" value="Register Account" style="ellipse;whiteSpace=wrap;html=1;" vertex="1" parent="PhMuikcm6n4okIbUqbu8-12">
          <mxGeometry x="40" y="20" width="90" height="50" as="geometry" />
        </mxCell>
        <mxCell id="PhMuikcm6n4okIbUqbu8-13" value="Lane 3" style="swimlane;startSize=20;horizontal=0;html=1;" vertex="1" parent="PhMuikcm6n4okIbUqbu8-10">
          <mxGeometry y="360" width="480" height="120" as="geometry" />
        </mxCell>
      </root>
    </mxGraphModel>
  </diagram>
</mxfile>
